<?xml version="1.0" encoding="UTF-8"?>
<svg id="Layer_2" data-name="Layer 2" xmlns="http://www.w3.org/2000/svg" viewBox="0 0 456.69 456.69">
  <defs>
    <style>
      .cls-1 {
        fill: snow;
        stroke: snow;
        stroke-miterlimit: 10;
        stroke-width: 2.83px;
      }

      .cls-2 {
        fill: #ff7518;
      }
    </style>
  </defs>
  <g id="Layer_1-2" data-name="Layer 1">
    <g>
      <circle class="cls-2" cx="228.35" cy="228.35" r="228.35"/>
      <path class="cls-1" d="M283.92,108.04c-.22.35-2.82.98-3.48.95-4.23-.17-4.62-5.85-6.41-8.68-25.27-40.15-84.74-8.31-107.77,18.94-16.7,19.76-13.74,36.36,5.15,52.76,10.37,9,8.36,6.18,19.29,1.82,47.55-18.95,59.93,1.22,58.47,46.58-1.23,38.1-7.63,76.14-7.66,114.3,0,9.21.12,24.2,2.43,32.83,3.2,11.97,8.1,1.13,10.9-5.05,16.21-35.81,18.5-85.63,26.25-124.42.59-2.95,1.15-8.19,3.32-10.17,2.71-2.46,8.46-2.45,9.74,1.4,1.57,4.7,2.13,14.39,2.56,19.64,1.89,22.94.7,52.39,6.6,74.31.74,2.75,1.28,3.51,3.09.39,3.42-5.89,6.92-26.13,8.31-33.72,5.68-31.05,7.83-62.81,13.12-93.94.37-3.49,6.3-6.29,7.62-2.43.71,2.08-.47,11.14-.76,14.05-3.01,30.32-7.82,67.62-14.72,97.1-1.52,6.49-5.55,24.79-10.15,28.71-9.42,8.03-14.4-4.37-15.92-11.87-3.85-19.01-1.71-40.58-5.14-59.11-.18-1-.24-2.52-1.55-1.2-.85.86-3.32,11.98-3.74,14.11-6.04,30.11-7.72,60.79-20.71,89.53-4.62,10.22-12.04,21.16-23.9,11.72-2.3-1.83-3.2-6.65-3.89-9.59-3.19-13.59-2.44-27.31-2.51-41.17l5.58-82.84c-11.91,5.98-47.88,7.59-51.36-9.3-1.53-7.43.8-12.55,5.35-18.08,2.26-2.74,12.33-10.83,12.61-12.85.09-.66.23-1.23-.26-1.79l-21.43-13.54c-4.51-1.65-11.54,4.03-15.42,6.86-26.17,19.07-73.5,72.64-30.95,99.02,8.66,5.37,17.05,6.62,27.18,6.92,4.45,3.46-3.23,4.7-6.22,4.7-16.06-.01-38.9-12.39-43.61-28.61-9.68-33.31,23.64-67.89,48.05-85.98,1.71-1.26,10.66-6.55,10.97-7.27.4-.95.14-1.31-.44-1.98-1.99-2.27-7.92-5.74-10.61-8.25-10.71-10.01-16.65-21.89-12.94-36.76,10.25-41.13,87.99-76.35,123.12-48.83,3.85,3.01,15.01,15.83,11.85,20.84ZM188.18,181.2c-.44.77-.14,2.14.7,2.69,5.97,1.4,17.54,12.72,22.65,13.09,1.04.07,1.62-.27,2.5-.61,1.67-.64,19.66-11.19,20.47-12.06,1.98-2.16,1.07-3.07-.42-5.17-7.18-10.1-26.76-6.25-36.61-2.52-1.16.44-9.03,4.14-9.28,4.59ZM238.01,188.27c-1.24-.85-10.18,5.5-11.82,6.78-1.96,1.53-6.65,4.65-6.43,7.04s11.87,10.52,14.33,12.71c.97.87,5.18,7.24,6.32,5.96.46-3.97-.5-31.2-2.4-32.49ZM211.67,207.39c-1.44.34-8.78,6.08-9.99,7.54s-6.49,9.92-6.88,11.35c-2.02,7.3,4.3,12.75,10.73,14.7,9.8,2.98,33.66,2.44,28.12-13.84-1.37-4.02-18.48-20.58-21.98-19.75Z"/>
    </g>
  </g>
</svg>