<?xml version="1.0" encoding="UTF-8"?>
<svg id="Layer_2" data-name="Layer 2" xmlns="http://www.w3.org/2000/svg" viewBox="0 0 593.06 131.17">
  <g id="Layer_1-2" data-name="Layer 1">
    <g>
      <g>
        <path d="M516.66,83.7c-1.8,11.81,5.13,15.24,15.14,10.08,11.11-5.74,20.81-22.08,25.44-33.43.27-.66,1.08-2.35.89-2.93-6.83-4.29-.56-16.09,6.77-13.53,4.49,1.57,1.84,7.57,1.06,10.74,5.85,3.29,16.36,1.88,14.96,11.5-1.12,7.7-10.26,20.15-9.8,27.03.38,5.64,6.08,1.72,8.36-.14,3.61-2.94,5.6-6.58,8.4-10.08.96-1.2,2.11-3.07,3.88-2.38,2.72,1.06.53,4.9-.45,6.59-3.1,5.38-10.77,13.89-16.63,16.04-6.38,2.34-12.11-.8-12.64-7.69-.78-10.16,6.8-21.37,9.63-30.87-.01-2.8-5.86-2.74-7.66-4.27-3.53,7.52-7.17,14.99-11.86,21.86-6.33,9.28-19.17,22.84-31.43,21.93-7.24-.54-12.09-4.33-13.73-11.42-.19-.83-.56-1.77-.18-2.55-.43-.1-.53.14-.77.39-4.28,4.42-7.89,10.21-14.01,12.44-4.68,1.71-10.62.15-12.06-5.05-2.14-7.7,5.98-21.83,8.63-29.5.89-2.59,2.9-8.82-2.08-7.78-5.54,1.16-16.82,18.94-19.68,24.14-2.65,4.81-4.73,11.81-7.42,15.91-1.01,1.53-2.17,2.36-4.07,2.36-7.97,0-1.51-8.39-1.56-12.39-4.08,6.05-13.21,15.65-21.31,11.98-10.47-4.74-.92-24.21,2.13-31.68.52-1.26,2.9-5.68,2.87-6.62-.01-.46-.56-1.28-1-1.48l-7.05-2.55c-6.55,14.11-14.76,29.22-27.65,38.5-15.61,11.25-33.33,4.8-29.46-16.24,2.05-11.12,11.35-25.42,22.05-29.82,13.48-5.54,20.47,5.16,13.09,16.72-2.8,4.39-7.06,7.91-11.54,10.5-3.95,2.28-9.07,4.46-13.71,3.75l-.26.18c-.76,7.62.88,14.1,10,12.08,14.66-3.25,26.25-25.58,31.85-38.19.19-.76-.69-.84-1.12-1.38-1.46-1.83-1.93-2.88-1.7-5.3.3-3.07,3.52-6.53,6.61-6.88,6.66-.74,6.21,5.84,4.02,10.11,4.67,2.72,14.08,2.1,14.97,8.76,1.03,7.68-8.33,19.4-9.47,27.22s4.32,5.27,8.1,2.14,11.09-12.37,13.23-16.85c3.02-6.33,3.85-15.19,6.83-21.18.7-1.4,1.47-1.97,3.06-2.13,1.38-.14,4,.39,4.74,1.68,1.82,3.19-3.8,13.84-4.64,17.47l3.26-4.91c3.48-4.03,7.12-9.38,11.82-12.04,9.75-5.52,18.14-1.67,15.4,10.21-1.86,8.04-6.43,15.23-8.7,22.94-1.82,6.18-.97,10.51,5.69,5.69,2.86-2.06,9.83-9.73,11.28-12.84,2.13-4.57,2.86-8.78,5.75-13.44,4.98-8.02,18.31-21.21,28.46-14.75,8.93,5.68.74,18.45-5,23.42-2.79,2.42-11.9,7.91-15.43,7.91h-4.28ZM518.22,77.99c4.07-.48,8.41-2.6,11.75-4.97,3.96-2.81,9.54-8.81,8.72-14.07-.79-5.06-7.12-.4-9.06,1.28-5.25,4.52-9.47,11.12-11.41,17.77ZM383.37,78.51c7.25-.69,20.08-9.37,20.74-16.99.33-3.83-1.45-5.44-5.02-3.73-2.87,1.38-7.37,5.99-9.35,8.55-2.81,3.64-5,7.77-6.37,12.16Z"/>
        <path d="M328.65,84.48l-8.71,14.24c-4.82,6.39-12.54,15.54-21.62,12.08-12.34-4.71-3.86-28.28-.79-37.08,3.57-10.21,8.88-20.74,11.74-31.05.9-3.23,2.48-10.75-2.53-11.36-13.61-1.65-25.6,15.75-24.52,28.15.21,2.46,4.04,8.46-1.42,8.42-3.76-.03-6.68-5.27-7.37-8.47-3.47-16.05,11.36-31.35,26.37-34,15.17-2.68,23.35,3.06,18.67,18.92-3.45,11.68-9.07,23.27-13.16,34.82-1.96,5.55-5.97,15.8-3.75,21.4.77,1.96,1.9,2.24,3.89,2.07,4.01-.35,8.87-6.56,10.98-9.77,9-13.72,14.83-29.19,21.98-43.89,1.14-2.44,6.54-1.84,6.87.62.3,2.22-2.51,9.67-3.25,12.33-2.72,9.76-8.43,28.91-4.92,38.37,2.74,7.39,8.99-2.41,10.54-5.52,5.94-11.9,10.12-25.9,15.06-38.36s13.27-37.04,29.37-36.78c4.91.08,7.38,5.17,2.34,6.78-2.98.95-4.54.64-7.27,2.84-9.21,7.42-17.74,32.56-22.37,44.02-4.07,10.08-11.69,36.29-24.31,37.67-15.42,1.69-12.97-16.54-11.8-26.45Z"/>
      </g>
      <g>
        <path d="M106.13,60.33c5.4-2.24,10.85-6.07,13.79-11.24,1.02-1.79,2.05-5.93,3.7-6.67,2.48-1.11,8.54-.26,7.76,3.33-.68,3.09-3.35,8.3-4.56,11.54-.09.25-.41.8-.07.97,1.67-2.47,3.39-5.09,5.44-7.27,4.41-4.68,12.82-12.68,19.76-9.12,6.31,3.24,5.1,9.91,3.27,15.55-2.41,7.41-6.07,14.17-7.26,22.04-.36,2.4-.73,4.79,2.59,4.4,2.67-.31,8.26-5.31,10.31-7.32,3.46-3.39,8.5-10.13,10.31-14.59s3.69-15.47,6.03-18.61c2.13-2.85,9.23-2.25,7.97,2.27-2.79,11.28-8.43,22.94-10.97,34.15-.05.23-.31.69,0,.79,4.1-3.5,8.7-6.51,12.7-10.12,1.03-.92,3.76-3.4,4.43-4.39,1.24-1.81,2.6-6.02,3.87-8.32,4-7.27,10.57-14.85,18.81-17.24,5.73-1.66,12.32-1.33,14.65,5.05,1.45-2.7,2.48-6.09,6.21-5.97,1.12.04,3.62.81,3.98,2.01.39,1.3-1.25,5.47-1.76,6.95-2.97,8.67-7.39,17.75-9,26.78-1.05,5.83-.81,10.11,5.87,5.35,3.95-2.82,6.27-6.9,9.37-10.34.99-1.1,2.3-2.66,3.77-1.19,2.54,2.54-2.23,8.74-3.92,10.89-4.18,5.27-13.54,14.06-20.73,10.14-5.33-2.9-4-10.12-2.98-15.05-5.14,6.38-15.32,19.98-24.89,15.17-5.02-2.52-5.72-9.18-5.38-14.2.02-.29.52-.51-.19-.45-5.83,5.75-12.42,10.6-18.91,15.55-3.88,13.2-10.44,32.05-23.58,38.69-5.28,2.67-13.24,1.32-15.34-4.72-3.37-9.67,10.49-21.77,17.42-26.66,2.9-2.05,11.48-6.59,12.84-9.21,1.25-2.42,3.25-7.3,4.1-9.91.04-.13.07-.42-.12-.38-5.86,5.83-12.43,15.43-21.97,12.63-9.2-2.7-5.03-14.65-2.8-21.07,1.63-4.69,7.06-16.05,6.22-20.47-.32-1.67-2.95-.35-3.98.15-9.46,4.62-19.46,23.1-23.76,32.51-1.85,4.06-2.5,10.22-8.15,9.44s-.91-8.53.03-11.33c.66-1.97.92-4.23,1.56-6.22,1.58-4.97,3.36-9.89,5-14.84-3.81,2.64-8.14,5.16-12.65,6.28-3.51,12.26-15.38,31.68-30.65,25.74-9.57-3.72-10.27-15.32-8.18-23.98,2.97-12.34,14.73-28.94,28.79-28.78,10.34.11,13.28,13.14,11.28,21.26ZM219.4,46.13c-8.85,1.27-17.3,17.21-19.66,24.95-1.15,3.78-2.77,14.97,4.4,11.4,4.86-2.42,10.1-8.83,13.2-13.25s9.65-14.32,8.01-19.86c-.75-2.56-3.48-3.6-5.96-3.24ZM99.87,60.29c.46-3.79,1.35-12.84-3.78-13.91-2.58-.53-6.18,1.52-6.53,4.24-.51,3.95,2.13,7.39,5.59,8.89.74.32,4.25,1.54,4.72.78ZM83.57,54.62c-.43-.1-.53.14-.77.39-4.25,4.37-7.91,13.36-8.04,19.45-.1,4.84,2.37,11.5,8.31,10.38,7.15-1.35,13.15-12.09,15.29-18.42-6.51-.84-14.36-4.36-14.79-11.8ZM148.56,119.09c4.43-5.55,7.26-13.51,9.7-20.12-2.11,1.58-4.34,3-6.45,4.57-5.03,3.72-14.89,11.35-14.04,18.39.11.87.55,1.93,1.49,2.14,3.22.73,7.44-2.64,9.3-4.98Z"/>
        <path d="M43.22,52.45c5.83,6.86,11.26,12.6,13.26,21.88,4.89,22.77-19.28,36.73-39.23,31.19-12.63-3.51-21.97-16.47-14.69-29.09,1.69-2.94,5.72-7.46,9.51-6.7,4.23.85-.19,6.27-.97,8.24-5.45,13.78,8.47,24.01,21.39,20.62,16.1-4.23,18.57-18.11,9.7-30.97C30.69,50.96,7.05,37.3,24.36,14.49,33.36,2.64,56.23-6.09,68.41,5.34c7.46,7,5.2,22.36-2.75,28.13-3.61,2.62-8.16,1.95-5.12-3.31,1.87-3.24,3.96-5.25,4.36-9.38,1.55-15.93-17.91-15.31-27.21-7.76-16.4,13.32-4.59,27.54,5.52,39.43Z"/>
        <path d="M180.39,31.19c-2.93-2.81-2.56-9.03,1.39-10.75,5.59-2.42,9.53,4.09,7.18,9-1.58,3.29-5.83,4.38-8.57,1.75Z"/>
      </g>
    </g>
  </g>
</svg>